<?xml version="1.0" encoding="UTF-8"?>
<svg id="uuid-afcb2173-1875-43b9-b76c-99f2f67d978a" data-name="Layer 1" xmlns="http://www.w3.org/2000/svg" viewBox="0 0 1000.64 201.21">
  <defs>
    <style>
      .uuid-6ca7b001-1896-4cbc-b970-5d77b34398b3 {
        fill: #231f20;
      }

      .uuid-6ca7b001-1896-4cbc-b970-5d77b34398b3, .uuid-3fabbc43-ab84-4f10-88d1-f589409cbe28, .uuid-fc674082-d158-422c-9f76-09ae45cba1ac {
        stroke-width: 0px;
      }

      .uuid-3fabbc43-ab84-4f10-88d1-f589409cbe28 {
        fill: #eb242a;
      }

      .uuid-fc674082-d158-422c-9f76-09ae45cba1ac {
        fill: #204697;
      }
    </style>
  </defs>
  <g>
    <path class="uuid-6ca7b001-1896-4cbc-b970-5d77b34398b3" d="M217.43,170.38h5.33v27.14h-2.69v-24.48h-4.26l1.62-2.66Z"/>
    <path class="uuid-6ca7b001-1896-4cbc-b970-5d77b34398b3" d="M255.62,170.38v2.58h-9.64l-1.36,7.4c1.18-.35,2.24-.52,3.19-.52,2.47,0,4.51.83,6.11,2.48s2.4,3.77,2.4,6.36c0,1.78-.41,3.42-1.24,4.91-.82,1.49-1.94,2.63-3.35,3.42-1.41.79-3.03,1.19-4.88,1.19-2.2,0-4.06-.67-5.57-2.02s-2.42-3.09-2.71-5.23h2.79c.21,1.04.56,1.89,1.06,2.55.5.65,1.16,1.18,1.99,1.58.83.4,1.7.6,2.61.6,1.78,0,3.31-.68,4.59-2.03,1.28-1.35,1.92-3.04,1.92-5.07,0-1.83-.58-3.32-1.73-4.46-1.16-1.14-2.7-1.71-4.63-1.71-1.6,0-3.54.49-5.81,1.46l2.51-13.49h11.75Z"/>
    <path class="uuid-6ca7b001-1896-4cbc-b970-5d77b34398b3" d="M279.08,169.7l-11.27,31.51h-2.82l11.25-31.51h2.84Z"/>
    <path class="uuid-6ca7b001-1896-4cbc-b970-5d77b34398b3" d="M300.22,170.38l12.66,27.14h-2.93l-4.27-8.93h-11.69l-4.23,8.93h-3.03l12.82-27.14h.66ZM299.88,176.15l-4.65,9.82h9.28l-4.63-9.82Z"/>
    <path class="uuid-6ca7b001-1896-4cbc-b970-5d77b34398b3" d="M338.88,197.52v-27.14h5.63c4.06,0,7,.33,8.84.98,2.63.92,4.69,2.52,6.17,4.8,1.48,2.28,2.22,4.99,2.22,8.14,0,2.72-.59,5.11-1.76,7.18-1.17,2.07-2.7,3.59-4.58,4.58-1.88.98-4.5,1.48-7.89,1.48h-8.63ZM341.48,194.96h3.14c3.75,0,6.35-.23,7.8-.7,2.04-.66,3.65-1.86,4.81-3.58,1.17-1.73,1.75-3.84,1.75-6.33,0-2.62-.63-4.85-1.9-6.71s-3.03-3.13-5.29-3.82c-1.7-.52-4.5-.77-8.39-.77h-1.92v21.92Z"/>
    <path class="uuid-6ca7b001-1896-4cbc-b970-5d77b34398b3" d="M372.24,169.7h2.58v11.35c1.04-1.38,2.2-2.41,3.45-3.09,1.25-.68,2.61-1.02,4.08-1.02s2.83.38,3.99,1.14c1.16.76,2.02,1.79,2.57,3.07.55,1.29.83,3.3.83,6.04v10.33h-2.58v-9.58c0-2.31-.09-3.86-.28-4.63-.32-1.33-.9-2.33-1.74-3-.84-.67-1.95-1.01-3.31-1.01-1.56,0-2.96.52-4.2,1.55-1.24,1.03-2.05,2.31-2.44,3.84-.25.98-.37,2.8-.37,5.46v7.36h-2.58v-27.82Z"/>
    <path class="uuid-6ca7b001-1896-4cbc-b970-5d77b34398b3" d="M420.95,177.45v20.07h-2.55v-3.45c-1.08,1.32-2.3,2.31-3.64,2.97s-2.82,1-4.42,1c-2.84,0-5.27-1.03-7.28-3.09-2.01-2.06-3.02-4.57-3.02-7.52s1.01-5.36,3.04-7.42,4.47-3.08,7.32-3.08c1.65,0,3.14.35,4.47,1.05s2.51,1.75,3.51,3.15v-3.69h2.55ZM410.62,179.42c-1.44,0-2.76.35-3.98,1.06-1.22.71-2.18,1.7-2.9,2.98-.72,1.28-1.08,2.63-1.08,4.05s.36,2.76,1.09,4.05,1.7,2.29,2.92,3.01,2.53,1.08,3.93,1.08,2.75-.36,4.02-1.07c1.27-.71,2.24-1.68,2.92-2.89.68-1.22,1.02-2.59,1.02-4.11,0-2.32-.76-4.26-2.29-5.82-1.53-1.56-3.41-2.34-5.65-2.34Z"/>
    <path class="uuid-6ca7b001-1896-4cbc-b970-5d77b34398b3" d="M432.43,177.45h2.58v3.6c1.03-1.38,2.18-2.41,3.43-3.09,1.25-.68,2.62-1.02,4.1-1.02s2.83.38,3.99,1.14c1.16.76,2.02,1.79,2.57,3.08.55,1.29.83,3.3.83,6.03v10.33h-2.58v-9.58c0-2.31-.1-3.86-.29-4.63-.3-1.33-.87-2.33-1.72-3-.85-.67-1.96-1.01-3.32-1.01-1.56,0-2.96.52-4.2,1.55s-2.05,2.31-2.44,3.84c-.25,1-.37,2.82-.37,5.46v7.36h-2.58v-20.07Z"/>
    <path class="uuid-6ca7b001-1896-4cbc-b970-5d77b34398b3" d="M461.12,177.45h2.58v3.47c.9-1.28,1.82-2.21,2.77-2.8,1.31-.79,2.68-1.18,4.12-1.18.97,0,1.9.19,2.77.57.87.38,1.59.89,2.14,1.52.55.63,1.03,1.54,1.44,2.72.86-1.57,1.93-2.77,3.22-3.59,1.29-.82,2.67-1.23,4.16-1.23,1.39,0,2.61.35,3.67,1.05,1.06.7,1.85,1.68,2.37,2.93.52,1.25.77,3.14.77,5.64v10.96h-2.64v-10.96c0-2.15-.15-3.63-.46-4.44-.31-.81-.83-1.45-1.57-1.95-.74-.49-1.63-.74-2.66-.74-1.25,0-2.39.37-3.43,1.11-1.04.74-1.79,1.72-2.27,2.95-.48,1.23-.72,3.28-.72,6.16v7.86h-2.58v-10.28c0-2.42-.15-4.07-.45-4.93-.3-.87-.83-1.56-1.58-2.08-.75-.52-1.64-.78-2.68-.78-1.19,0-2.31.36-3.35,1.08-1.04.72-1.81,1.69-2.31,2.91s-.75,3.08-.75,5.59v8.5h-2.58v-20.07Z"/>
    <path class="uuid-6ca7b001-1896-4cbc-b970-5d77b34398b3" d="M511.74,176.93c3.09,0,5.66,1.12,7.69,3.36,1.85,2.04,2.77,4.46,2.77,7.25s-.98,5.25-2.93,7.35-4.46,3.15-7.53,3.15-5.6-1.05-7.55-3.15c-1.95-2.1-2.93-4.55-2.93-7.35s.92-5.19,2.77-7.23c2.03-2.25,4.6-3.38,7.71-3.38ZM511.74,179.46c-2.15,0-3.99.79-5.54,2.38s-2.31,3.51-2.31,5.76c0,1.45.35,2.8,1.06,4.06.7,1.25,1.65,2.22,2.85,2.91s2.51,1.02,3.94,1.02,2.75-.34,3.94-1.02,2.15-1.65,2.85-2.91c.7-1.25,1.05-2.61,1.05-4.06,0-2.25-.77-4.17-2.32-5.76-1.55-1.59-3.39-2.38-5.53-2.38Z"/>
    <path class="uuid-6ca7b001-1896-4cbc-b970-5d77b34398b3" d="M532.65,177.45h2.58v3.6c1.03-1.38,2.18-2.41,3.43-3.09,1.25-.68,2.62-1.02,4.1-1.02s2.83.38,3.99,1.14c1.16.76,2.02,1.79,2.57,3.08.55,1.29.83,3.3.83,6.03v10.33h-2.58v-9.58c0-2.31-.1-3.86-.29-4.63-.3-1.33-.87-2.33-1.72-3-.85-.67-1.96-1.01-3.32-1.01-1.56,0-2.96.52-4.2,1.55s-2.05,2.31-2.44,3.84c-.25,1-.37,2.82-.37,5.46v7.36h-2.58v-20.07Z"/>
    <path class="uuid-6ca7b001-1896-4cbc-b970-5d77b34398b3" d="M581.4,169.7v27.82h-2.55v-3.45c-1.08,1.32-2.3,2.31-3.64,2.97s-2.82,1-4.42,1c-2.84,0-5.27-1.03-7.28-3.09-2.01-2.06-3.02-4.57-3.02-7.52s1.01-5.36,3.04-7.42,4.47-3.08,7.32-3.08c1.65,0,3.14.35,4.47,1.05,1.33.7,2.51,1.75,3.51,3.15v-11.44h2.55ZM571.07,179.42c-1.44,0-2.76.35-3.98,1.06-1.22.71-2.18,1.7-2.9,2.98-.72,1.28-1.08,2.63-1.08,4.05s.36,2.76,1.09,4.05,1.7,2.29,2.92,3.01c1.22.72,2.53,1.08,3.93,1.08s2.75-.36,4.02-1.07c1.27-.71,2.24-1.68,2.92-2.89s1.02-2.59,1.02-4.11c0-2.32-.76-4.26-2.29-5.82s-3.41-2.34-5.65-2.34Z"/>
    <path class="uuid-6ca7b001-1896-4cbc-b970-5d77b34398b3" d="M593.81,169.18c.59,0,1.09.21,1.51.63.42.42.62.92.62,1.51s-.21,1.08-.62,1.49c-.42.42-.92.63-1.51.63s-1.07-.21-1.49-.63c-.42-.42-.62-.92-.62-1.49s.21-1.09.62-1.51c.42-.42.91-.63,1.49-.63ZM592.52,177.45h2.58v20.07h-2.58v-20.07Z"/>
    <path class="uuid-6ca7b001-1896-4cbc-b970-5d77b34398b3" d="M622.84,170.38h5.41c3.01,0,5.05.12,6.12.37,1.61.37,2.92,1.16,3.93,2.37,1.01,1.21,1.51,2.71,1.51,4.48,0,1.48-.35,2.78-1.04,3.9-.7,1.12-1.69,1.97-2.98,2.54-1.29.57-3.08.87-5.35.88l9.76,12.6h-3.36l-9.76-12.6h-1.53v12.6h-2.71v-27.14ZM625.56,173.04v9.22l4.67.04c1.81,0,3.15-.17,4.02-.52.87-.34,1.55-.89,2.03-1.65s.73-1.6.73-2.54-.25-1.74-.74-2.48c-.49-.74-1.14-1.28-1.94-1.6-.8-.32-2.13-.48-3.99-.48h-4.79Z"/>
    <path class="uuid-6ca7b001-1896-4cbc-b970-5d77b34398b3" d="M663.42,169.7l-11.27,31.51h-2.82l11.25-31.51h2.84Z"/>
    <path class="uuid-6ca7b001-1896-4cbc-b970-5d77b34398b3" d="M684.56,170.38l12.66,27.14h-2.93l-4.27-8.93h-11.69l-4.23,8.93h-3.03l12.82-27.14h.66ZM684.22,176.15l-4.65,9.82h9.28l-4.63-9.82Z"/>
    <path class="uuid-6ca7b001-1896-4cbc-b970-5d77b34398b3" d="M709.23,192.54l2.49,1.18-3.75,6.97-1.83-.77,3.08-7.38Z"/>
    <path class="uuid-6ca7b001-1896-4cbc-b970-5d77b34398b3" d="M739.35,197.52v-27.14h5.63c4.06,0,7,.33,8.84.98,2.63.92,4.69,2.52,6.17,4.8,1.48,2.28,2.22,4.99,2.22,8.14,0,2.72-.59,5.11-1.76,7.18-1.17,2.07-2.7,3.59-4.58,4.58-1.88.98-4.5,1.48-7.89,1.48h-8.63ZM741.95,194.96h3.14c3.75,0,6.35-.23,7.8-.7,2.04-.66,3.65-1.86,4.82-3.58,1.17-1.73,1.75-3.84,1.75-6.33,0-2.62-.63-4.85-1.9-6.71-1.27-1.86-3.03-3.13-5.29-3.82-1.7-.52-4.5-.77-8.39-.77h-1.92v21.92Z"/>
    <path class="uuid-6ca7b001-1896-4cbc-b970-5d77b34398b3" d="M772.71,169.7h2.58v11.35c1.04-1.38,2.2-2.41,3.45-3.09,1.25-.68,2.61-1.02,4.08-1.02s2.83.38,3.99,1.14c1.16.76,2.02,1.79,2.57,3.07s.83,3.3.83,6.04v10.33h-2.58v-9.58c0-2.31-.09-3.86-.28-4.63-.32-1.33-.9-2.33-1.74-3-.84-.67-1.95-1.01-3.31-1.01-1.56,0-2.96.52-4.2,1.55s-2.05,2.31-2.44,3.84c-.25.98-.37,2.8-.37,5.46v7.36h-2.58v-27.82Z"/>
    <path class="uuid-6ca7b001-1896-4cbc-b970-5d77b34398b3" d="M821.42,177.45v20.07h-2.55v-3.45c-1.08,1.32-2.3,2.31-3.64,2.97-1.35.66-2.82,1-4.42,1-2.84,0-5.27-1.03-7.28-3.09-2.01-2.06-3.02-4.57-3.02-7.52s1.01-5.36,3.04-7.42c2.03-2.05,4.47-3.08,7.32-3.08,1.65,0,3.14.35,4.47,1.05,1.33.7,2.51,1.75,3.51,3.15v-3.69h2.55ZM811.09,179.42c-1.44,0-2.76.35-3.98,1.06-1.22.71-2.18,1.7-2.9,2.98s-1.08,2.63-1.08,4.05.36,2.76,1.09,4.05,1.7,2.29,2.92,3.01c1.22.72,2.53,1.08,3.93,1.08s2.75-.36,4.02-1.07c1.27-.71,2.24-1.68,2.92-2.89s1.02-2.59,1.02-4.11c0-2.32-.77-4.26-2.29-5.82s-3.41-2.34-5.65-2.34Z"/>
    <path class="uuid-6ca7b001-1896-4cbc-b970-5d77b34398b3" d="M832.88,169.7h2.58v15.85l9.31-8.1h3.79l-11.03,9.58,11.68,10.5h-3.63l-10.11-9.04v9.04h-2.58v-27.82Z"/>
    <path class="uuid-6ca7b001-1896-4cbc-b970-5d77b34398b3" d="M877.53,177.45v20.07h-2.55v-3.45c-1.08,1.32-2.3,2.31-3.64,2.97-1.35.66-2.82,1-4.42,1-2.84,0-5.27-1.03-7.28-3.09-2.01-2.06-3.02-4.57-3.02-7.52s1.01-5.36,3.04-7.42c2.03-2.05,4.47-3.08,7.32-3.08,1.65,0,3.14.35,4.47,1.05,1.33.7,2.51,1.75,3.51,3.15v-3.69h2.55ZM867.2,179.42c-1.44,0-2.76.35-3.98,1.06-1.22.71-2.18,1.7-2.9,2.98s-1.08,2.63-1.08,4.05.36,2.76,1.09,4.05,1.7,2.29,2.92,3.01c1.22.72,2.53,1.08,3.93,1.08s2.75-.36,4.02-1.07c1.27-.71,2.24-1.68,2.92-2.89s1.02-2.59,1.02-4.11c0-2.32-.77-4.26-2.29-5.82s-3.41-2.34-5.65-2.34Z"/>
    <path class="uuid-6ca7b001-1896-4cbc-b970-5d77b34398b3" d="M909.25,170.38h5.33v27.14h-2.69v-24.48h-4.26l1.62-2.66Z"/>
    <path class="uuid-6ca7b001-1896-4cbc-b970-5d77b34398b3" d="M933.23,178.87h-2.6c.07-2.68.97-4.87,2.68-6.59s3.83-2.58,6.36-2.58,4.52.81,6.06,2.42c1.54,1.61,2.32,3.51,2.32,5.7,0,1.54-.37,2.98-1.1,4.33-.74,1.35-2.17,3.17-4.29,5.47l-6.76,7.28h12.52v2.62h-18.43l10.37-11.21c2.1-2.25,3.47-3.92,4.11-5.01.63-1.09.95-2.24.95-3.44,0-1.53-.57-2.84-1.71-3.94s-2.53-1.65-4.18-1.65c-1.73,0-3.18.58-4.33,1.73-1.15,1.16-1.8,2.78-1.96,4.87Z"/>
    <path class="uuid-6ca7b001-1896-4cbc-b970-5d77b34398b3" d="M956.67,183.96c0-3.58.38-6.35,1.15-8.3.77-1.96,1.85-3.44,3.26-4.45,1.4-1.01,2.97-1.51,4.7-1.51s3.35.51,4.78,1.52,2.56,2.54,3.39,4.57,1.25,4.75,1.25,8.17-.41,6.12-1.23,8.14c-.82,2.02-1.95,3.54-3.39,4.57-1.44,1.03-3.04,1.54-4.8,1.54s-3.3-.5-4.69-1.49-2.48-2.48-3.26-4.46c-.78-1.97-1.17-4.74-1.17-8.29ZM959.23,184.01c0,3.07.27,5.38.82,6.95.55,1.57,1.36,2.76,2.43,3.57,1.07.81,2.2,1.22,3.39,1.22s2.33-.4,3.38-1.19c1.04-.79,1.84-1.98,2.38-3.57.68-1.93,1.01-4.26,1.01-6.98s-.3-4.97-.9-6.71c-.6-1.74-1.44-3.02-2.5-3.82-1.06-.81-2.19-1.21-3.37-1.21s-2.34.4-3.39,1.21c-1.06.81-1.86,1.99-2.42,3.56s-.83,3.89-.83,6.97Z"/>
    <path class="uuid-6ca7b001-1896-4cbc-b970-5d77b34398b3" d="M989.33,198.2l-2.23-1.44,7.34-11.11c-.98.32-1.91.49-2.77.49-2.16,0-3.99-.78-5.49-2.33-1.5-1.56-2.25-3.47-2.25-5.75,0-1.56.36-2.97,1.09-4.22.73-1.25,1.75-2.26,3.09-3.01,1.33-.75,2.76-1.13,4.29-1.13s2.89.36,4.16,1.09c1.27.73,2.27,1.74,3,3.04s1.09,2.69,1.09,4.17c0,1.12-.22,2.29-.67,3.51-.45,1.22-1.25,2.7-2.41,4.42l-8.23,12.27ZM992.29,183.76c1.59,0,2.94-.56,4.05-1.67,1.11-1.11,1.66-2.46,1.66-4.03s-.56-2.92-1.67-4.03c-1.11-1.11-2.46-1.67-4.05-1.67s-2.92.56-4.03,1.67-1.67,2.46-1.67,4.03.56,2.92,1.67,4.03,2.46,1.67,4.04,1.67Z"/>
  </g>
  <g>
    <path class="uuid-fc674082-d158-422c-9f76-09ae45cba1ac" d="M212.48,145.6v-56.68h-14.38v-11.54h38.46v11.54h-14.34v56.68h-9.75Z"/>
    <path class="uuid-fc674082-d158-422c-9f76-09ae45cba1ac" d="M242.93,145.6v-68.22h9.75v26.85h19.21v-26.85h9.75v68.22h-9.75v-29.83h-19.21v29.83h-9.75Z"/>
    <path class="uuid-fc674082-d158-422c-9f76-09ae45cba1ac" d="M291.74,145.6v-68.22h35.92v11.54h-26.18v15.12h24.32v11.49h-24.32v18.52h27.06v11.54h-36.81Z"/>
    <path class="uuid-fc674082-d158-422c-9f76-09ae45cba1ac" d="M355.33,145.6v-68.22h9.75v68.22h-9.75Z"/>
    <path class="uuid-fc674082-d158-422c-9f76-09ae45cba1ac" d="M374.41,77.38h19.39c5.29,0,9.02.56,11.17,1.68,2.15,1.12,3.96,3.09,5.44,5.91,1.48,2.82,2.22,6.02,2.22,9.59,0,3.29-.63,6.26-1.9,8.91-1.27,2.65-2.91,4.61-4.93,5.89,2.87,1.18,5.12,3.2,6.74,6.05,1.62,2.85,2.43,6.33,2.43,10.42,0,4.96-1.03,9.16-3.1,12.59-2.07,3.43-4.51,5.55-7.33,6.35-1.96.56-6.51.84-13.65.84h-16.47v-68.22ZM384.16,88.73v15.77h6.44c3.87,0,6.26-.08,7.17-.23,1.66-.31,2.97-1.12,3.91-2.44.94-1.32,1.41-3.11,1.41-5.37,0-2.02-.38-3.65-1.15-4.91-.77-1.26-1.69-2.04-2.78-2.35-1.09-.31-4.21-.47-9.36-.47h-5.64ZM384.16,115.86v18.19h9.08c3.98,0,6.54-.24,7.67-.72,1.13-.48,2.08-1.42,2.84-2.83.77-1.41,1.15-3.2,1.15-5.36s-.41-4.06-1.23-5.5c-.82-1.44-1.91-2.43-3.27-2.97-1.36-.54-4.14-.81-8.33-.81h-7.91Z"/>
    <path class="uuid-fc674082-d158-422c-9f76-09ae45cba1ac" d="M423.35,145.6v-68.22h9.5l19.81,45.56v-45.56h9.1v68.22h-9.83l-19.49-44.48v44.48h-9.1Z"/>
    <path class="uuid-fc674082-d158-422c-9f76-09ae45cba1ac" d="M488.39,123.35l9.54-1.3c1.07,8.72,4.59,13.08,10.55,13.08,2.95,0,5.28-.89,6.97-2.67,1.69-1.78,2.54-3.99,2.54-6.63,0-1.55-.3-2.87-.89-3.95-.59-1.08-1.49-1.98-2.7-2.67-1.21-.7-4.13-1.87-8.78-3.51-4.16-1.45-7.21-3.03-9.14-4.74-1.93-1.7-3.47-3.94-4.61-6.72-1.14-2.77-1.71-5.76-1.71-8.95,0-3.72.73-7.07,2.2-10.04,1.46-2.98,3.48-5.22,6.06-6.74,2.58-1.52,5.76-2.28,9.55-2.28,5.69,0,10.13,1.78,13.33,5.35,3.19,3.57,4.89,8.67,5.07,15.31l-9.79.6c-.43-3.66-1.36-6.22-2.78-7.68-1.42-1.46-3.45-2.19-6.08-2.19s-4.66.63-6.08,1.9c-1.42,1.27-2.13,2.85-2.13,4.73s.65,3.42,1.94,4.69c1.29,1.27,4.26,2.66,8.9,4.18,4.91,1.65,8.46,3.38,10.65,5.19,2.19,1.82,3.86,4.16,5.01,7.03s1.73,6.35,1.73,10.44c0,5.92-1.58,10.9-4.73,14.93-3.16,4.03-8.09,6.05-14.8,6.05-11.87,0-18.47-7.8-19.81-23.41Z"/>
    <path class="uuid-fc674082-d158-422c-9f76-09ae45cba1ac" d="M535.66,145.6v-68.22h9.75v68.22h-9.75Z"/>
    <path class="uuid-fc674082-d158-422c-9f76-09ae45cba1ac" d="M554.88,145.6v-68.22h9.5l19.81,45.56v-45.56h9.1v68.22h-9.83l-19.49-44.48v44.48h-9.1Z"/>
    <path class="uuid-fc674082-d158-422c-9f76-09ae45cba1ac" d="M647.26,145.6h-10.6l-4.24-15.45h-19.38l-4,15.45h-10.39l18.85-68.22h10.35l19.4,68.22ZM629.28,118.61l-6.68-25.31-6.56,25.31h13.24Z"/>
    <path class="uuid-fc674082-d158-422c-9f76-09ae45cba1ac" d="M668.76,145.6v-68.22h9.75v26.85h19.21v-26.85h9.75v68.22h-9.75v-29.83h-19.21v29.83h-9.75Z"/>
    <path class="uuid-fc674082-d158-422c-9f76-09ae45cba1ac" d="M715.56,111.91c0-8.13,1.04-14.82,3.12-20.08,2.08-5.26,4.8-9.17,8.16-11.75,3.36-2.57,7.42-3.86,12.2-3.86,6.93,0,12.57,3.06,16.93,9.17,4.36,6.11,6.54,14.81,6.54,26.1s-2.31,20.33-6.93,26.76c-4.05,5.68-9.56,8.52-16.51,8.52s-12.54-2.81-16.59-8.42c-4.62-6.42-6.93-15.23-6.93-26.43ZM725.63,111.44c0,7.85,1.29,13.74,3.87,17.66,2.58,3.92,5.78,5.89,9.6,5.89s7.03-1.95,9.56-5.84c2.53-3.89,3.79-9.87,3.79-17.94s-1.23-13.76-3.69-17.54-5.68-5.68-9.66-5.68-7.22,1.91-9.72,5.72c-2.5,3.82-3.75,9.73-3.75,17.73Z"/>
    <path class="uuid-fc674082-d158-422c-9f76-09ae45cba1ac" d="M767.71,123.35l9.54-1.3c1.07,8.72,4.59,13.08,10.55,13.08,2.95,0,5.28-.89,6.97-2.67,1.69-1.78,2.54-3.99,2.54-6.63,0-1.55-.3-2.87-.89-3.95-.59-1.08-1.49-1.98-2.7-2.67-1.21-.7-4.13-1.87-8.78-3.51-4.16-1.45-7.21-3.03-9.14-4.74-1.93-1.7-3.47-3.94-4.61-6.72-1.14-2.77-1.71-5.76-1.71-8.95,0-3.72.73-7.07,2.2-10.04,1.46-2.98,3.48-5.22,6.06-6.74,2.58-1.52,5.76-2.28,9.54-2.28,5.69,0,10.13,1.78,13.33,5.35,3.19,3.57,4.89,8.67,5.07,15.31l-9.79.6c-.43-3.66-1.36-6.22-2.78-7.68-1.42-1.46-3.45-2.19-6.08-2.19s-4.66.63-6.08,1.9-2.13,2.85-2.13,4.73.65,3.42,1.94,4.69c1.29,1.27,4.26,2.66,8.9,4.18,4.91,1.65,8.46,3.38,10.65,5.19,2.19,1.82,3.86,4.16,5.01,7.03s1.73,6.35,1.73,10.44c0,5.92-1.58,10.9-4.73,14.93-3.16,4.03-8.09,6.05-14.8,6.05-11.87,0-18.47-7.8-19.81-23.41Z"/>
    <path class="uuid-fc674082-d158-422c-9f76-09ae45cba1ac" d="M815.27,145.6v-68.22h15.71c5.85,0,9.68.33,11.48.98,2.87,1.05,5.24,3.3,7.11,6.75,1.87,3.44,2.8,7.88,2.8,13.31,0,4.93-.81,9.07-2.42,12.4-1.61,3.33-3.62,5.68-6.04,7.03s-6.58,2.02-12.48,2.02h-6.4v25.73h-9.75ZM825.02,88.92v19.4h5.41c3.63,0,6.1-.29,7.41-.89,1.31-.59,2.38-1.65,3.21-3.19.83-1.54,1.25-3.43,1.25-5.67s-.43-4.18-1.29-5.74c-.86-1.55-1.92-2.6-3.19-3.12-1.26-.53-3.94-.79-8.03-.79h-4.76Z"/>
    <path class="uuid-fc674082-d158-422c-9f76-09ae45cba1ac" d="M860.1,145.6v-68.22h9.75v68.22h-9.75Z"/>
    <path class="uuid-fc674082-d158-422c-9f76-09ae45cba1ac" d="M890.1,145.6v-56.68h-14.38v-11.54h38.46v11.54h-14.34v56.68h-9.75Z"/>
    <path class="uuid-fc674082-d158-422c-9f76-09ae45cba1ac" d="M959.25,145.6h-10.6l-4.24-15.45h-19.38l-4,15.45h-10.39l18.85-68.22h10.35l19.4,68.22ZM941.27,118.61l-6.68-25.31-6.56,25.31h13.24Z"/>
    <path class="uuid-fc674082-d158-422c-9f76-09ae45cba1ac" d="M964.65,145.6v-67.66h9.75v56.12h24.32v11.54h-34.07Z"/>
  </g>
  <g>
    <polygon class="uuid-fc674082-d158-422c-9f76-09ae45cba1ac" points="66.63 16.82 70.95 20.36 81.97 9.14 76.56 5.6 66.63 16.82"/>
    <polygon class="uuid-fc674082-d158-422c-9f76-09ae45cba1ac" points="76.89 23.95 81.13 27.47 92.23 16.21 86.76 12.62 76.89 23.95"/>
    <path class="uuid-fc674082-d158-422c-9f76-09ae45cba1ac" d="M61.96,18.23l-2.17,3.33s25.63,20.32,27.61,21.89,5.45,4.29,6.65,6.41c1.2,2.11,3.22,4.87,2.9,9.92-.35,5.45-1.92,14.15-13.12,20.95l11.38,9.3s10.71-6.92,13.92-18.72c1.59-6.26,1.56-16.18-7.34-24.17-1.48-1.31-3.04-2.63-4.67-3.96-15.05-12.3-35.16-24.94-35.16-24.94Z"/>
    <path class="uuid-fc674082-d158-422c-9f76-09ae45cba1ac" d="M60.9,44.61v3.37h20.4s4.3,1.95,2.02,6.15-13.06,14.82-13.06,14.82l8.58,8.64s8.55-7.52,11.31-12.97c2.77-5.45,2.74-9.33,1.11-13.3s-4.18-6.71-8.67-6.71h-21.69Z"/>
    <rect class="uuid-fc674082-d158-422c-9f76-09ae45cba1ac" x="59.42" y="90.9" width="51.69" height="13.12"/>
    <rect class="uuid-fc674082-d158-422c-9f76-09ae45cba1ac" x="59.42" y="107.78" width="51.69" height="13.12"/>
    <path class="uuid-3fabbc43-ab84-4f10-88d1-f589409cbe28" d="M80.95,147.46c-42.34,0-76.79-33.4-76.79-74.45C4.15,37.66,30.06,6.96,65.76.02c.64-.12,1.26.27,1.43.9s-.18,1.28-.8,1.49C39.19,11.58,20.91,36.31,20.91,63.95c0,35.98,30.59,65.26,68.19,65.26,32.93,0,60.37-22.91,66.74-55.71.12-.63.71-1.06,1.35-.99.64.07,1.12.62,1.1,1.26-.64,21.02-9.34,40.1-24.5,53.7-14.36,12.89-33.12,19.99-52.84,19.99ZM49.84,7.63C24.04,19.17,6.62,44.53,6.62,73.02c0,39.69,33.34,71.98,74.32,71.98,31.45,0,65.27-19.9,73.18-57.09-10.73,26.36-35.79,43.77-65.03,43.77-38.96,0-70.66-30.38-70.66-67.73,0-22.94,12.12-43.96,31.39-56.32Z"/>
    <path class="uuid-fc674082-d158-422c-9f76-09ae45cba1ac" d="M159.75,160.43H0l26.73-27.41c14.48,12.38,33.46,19.88,54.21,19.88s39.19-6.89,54.24-19.48l24.57,27.01Z"/>
    <g>
      <path class="uuid-3fabbc43-ab84-4f10-88d1-f589409cbe28" d="M2.53,197.17v-27.68h5.25v27.68H2.53Z"/>
      <path class="uuid-3fabbc43-ab84-4f10-88d1-f589409cbe28" d="M12.88,169.49h10.41c.45,0,1.04.02,1.75.06.71.04,1.2.06,1.46.06.41,0,.78.03,1.12.09.34.06.73.16,1.16.28,1.19.3,2.26,1.06,3.21,2.28.48.6.83,1.26,1.07,1.97.24.71.36,1.46.36,2.26,0,1.25-.33,2.42-.98,3.52s-1.55,1.92-2.7,2.45c1.55.45,2.77,1.28,3.64,2.48s1.31,2.6,1.31,4.2c0,1.94-.54,3.63-1.62,5.06-1.08,1.44-2.29,2.29-3.65,2.56-1.35.27-3.92.41-7.69.41h-8.86v-27.68ZM18.14,174.1v6.4h5.68c1.48,0,2.6-.27,3.36-.81s1.13-1.36,1.13-2.46c0-.87-.22-1.57-.67-2.09-.45-.52-1.05-.84-1.81-.95l-1.68-.09h-6ZM18.14,185.1v7.42h4.86c1.98,0,3.28-.07,3.9-.2.62-.13,1.17-.5,1.65-1.11.48-.61.72-1.38.72-2.33s-.25-1.71-.76-2.37c-.44-.59-1.11-.98-2-1.15-.89-.18-2.26-.27-4.12-.27h-4.25Z"/>
      <path class="uuid-3fabbc43-ab84-4f10-88d1-f589409cbe28" d="M39.22,197.17v-27.68h5.12l10.66,18.49v-18.49h4.88v27.68h-5.27l-10.51-18.05v18.05h-4.88Z"/>
      <path class="uuid-3fabbc43-ab84-4f10-88d1-f589409cbe28" d="M74.23,188.16l5.12-.53c.53,3.54,2.43,5.31,5.69,5.31,1.54,0,2.78-.36,3.71-1.08.93-.72,1.4-1.62,1.4-2.72,0-1.02-.36-1.76-1.09-2.21-.73-.45-2.58-1.08-5.55-1.89-3.42-.91-5.66-2.12-6.73-3.63-1.07-1.52-1.61-3.07-1.61-4.66,0-2.33.83-4.2,2.5-5.62,1.67-1.42,4.01-2.12,7.02-2.12s5.42.72,7.19,2.15c.88.71,1.58,1.59,2.07,2.66.46,1.03.7,2.22.7,3.57l-5.25.25c-.31-2.66-1.88-3.98-4.73-3.98-1.34,0-2.43.25-3.26.75-.41.25-.71.53-.92.85-.2.31-.31.69-.31,1.11,0,.68.3,1.27.91,1.78.61.51,2.25,1.11,4.94,1.8,2.46.6,4.3,1.25,5.51,1.94,1.21.69,2.16,1.65,2.84,2.89.68,1.23,1.02,2.68,1.02,4.34,0,2.31-.84,4.31-2.53,6s-4.32,2.53-7.91,2.53c-6.44,0-10.01-3.17-10.73-9.5Z"/>
      <path class="uuid-3fabbc43-ab84-4f10-88d1-f589409cbe28" d="M99.61,197.17v-27.68h5.25v27.68h-5.25Z"/>
      <path class="uuid-3fabbc43-ab84-4f10-88d1-f589409cbe28" d="M110.02,197.17v-27.68h5.12l10.66,18.49v-18.49h4.88v27.68h-5.27l-10.51-18.05v18.05h-4.88Z"/>
      <path class="uuid-3fabbc43-ab84-4f10-88d1-f589409cbe28" d="M159.75,197.17h-5.73l-2.26-6.29h-10.42l-2.16,6.29h-5.58l10.15-27.68h5.56l10.44,27.68ZM150.06,186.24l-3.59-10.29-3.52,10.29h7.11Z"/>
    </g>
    <g>
      <path class="uuid-6ca7b001-1896-4cbc-b970-5d77b34398b3" d="M109.9,2.11c-6.14,0-11.12,4.98-11.12,11.12s4.98,11.12,11.12,11.12,11.12-4.98,11.12-11.12-4.98-11.12-11.12-11.12ZM109.9,23c-5.39,0-9.78-4.39-9.78-9.78s4.39-9.78,9.78-9.78,9.78,4.39,9.78,9.78-4.39,9.78-9.78,9.78Z"/>
      <path class="uuid-6ca7b001-1896-4cbc-b970-5d77b34398b3" d="M105.68,18.79V6.3h4.76c1.12,0,1.96.1,2.52.3.56.2,1.01.59,1.36,1.18.35.59.52,1.27.52,2.03,0,.86-.23,1.61-.69,2.23s-1.21,1.04-2.26,1.24c.47.3.87.65,1.2,1.05.15.17.33.43.55.79.1.15.22.34.35.56.13.22.26.44.39.68l1.37,2.44h-2.7l-1.64-2.72c-.7-1.18-1.19-1.89-1.49-2.13-.3-.24-.8-.36-1.51-.36h-.46v5.21h-2.26ZM107.94,11.58h1.67c.95,0,1.58-.03,1.87-.09.29-.06.53-.22.73-.48.2-.26.3-.61.3-1.05s-.1-.77-.3-1.02c-.2-.25-.44-.4-.73-.45s-.88-.08-1.76-.08h-1.77v3.17Z"/>
    </g>
  </g>
</svg>